<svg width="50" height="50" viewBox="0 0 50 50" xmlns="http://www.w3.org/2000/svg">
  <defs>
    <linearGradient id="logoGradient" x1="0%" y1="0%" x2="100%" y2="100%">
      <stop offset="0%" stop-color="#dc3545" />
      <stop offset="100%" stop-color="#ffc107" />
    </linearGradient>
  </defs>
  
  <g fill="url(#logoGradient)">
    <!-- Dice outline -->
    <path d="M42.5,15L25,5L7.5,15v20L25,45l17.5-10V15z M25,40.5L10,32v-14l15-8.5l15,8.5v14L25,40.5z" />
    
    <!-- Dots on dice -->
    <circle cx="25" cy="25" r="3" />
    <circle cx="16" cy="16" r="2.5" />
    <circle cx="34" cy="16" r="2.5" />
    <circle cx="16" cy="34" r="2.5" />
    <circle cx="34" cy="34" r="2.5" />
    <circle cx="25" cy="16" r="2" />
    <circle cx="25" cy="34" r="2" />
    
    <!-- Lines connecting dots -->
    <path d="M25,22L25,16" stroke="url(#logoGradient)" stroke-width="1.5" />
    <path d="M25,28L25,34" stroke="url(#logoGradient)" stroke-width="1.5" />
    <path d="M22,25L16,25" stroke="url(#logoGradient)" stroke-width="1.5" />
    <path d="M28,25L34,25" stroke="url(#logoGradient)" stroke-width="1.5" />
    <path d="M22,22L16,16" stroke="url(#logoGradient)" stroke-width="1.5" />
    <path d="M28,22L34,16" stroke="url(#logoGradient)" stroke-width="1.5" />
    <path d="M22,28L16,34" stroke="url(#logoGradient)" stroke-width="1.5" />
    <path d="M28,28L34,34" stroke="url(#logoGradient)" stroke-width="1.5" />
  </g>
</svg>
